<?xml version="1.0" standalone="no"?>
<!DOCTYPE svg PUBLIC "-//W3C//DTD SVG 20010904//EN"
 "http://www.w3.org/TR/2001/REC-SVG-20010904/DTD/svg10.dtd">
<svg version="1.0" xmlns="http://www.w3.org/2000/svg"
 width="512.000000pt" height="512.000000pt" viewBox="0 0 512.000000 512.000000"
 preserveAspectRatio="xMidYMid meet">
<metadata>
Created by potrace 1.14, written by Peter Selinger 2001-2017
</metadata>
<g transform="translate(0.000000,512.000000) scale(0.100000,-0.100000)"
fill="#000000" stroke="none">
<path d="M954 5104 c-86 -45 -100 -83 -99 -266 l0 -145 -260 0 c-143 0 -276
-3 -295 -6 -47 -9 -106 -65 -120 -114 -8 -26 -10 -158 -8 -414 l3 -375 25 -37
c49 -73 71 -77 377 -77 208 0 272 -3 275 -12 2 -7 3 -141 3 -298 l-1 -285
-279 -3 c-276 -2 -279 -2 -321 -27 -28 -17 -49 -39 -63 -68 -21 -43 -21 -57
-21 -423 1 -370 1 -379 23 -417 12 -22 40 -50 63 -63 41 -24 44 -25 317 -25
248 -1 276 -3 279 -17 3 -14 2 -530 -1 -569 -1 -10 -62 -13 -271 -13 -294 0
-312 -3 -362 -56 -15 -16 -32 -42 -38 -58 -7 -19 -10 -156 -10 -402 1 -368 1
-373 24 -416 15 -28 37 -51 65 -67 43 -24 48 -24 319 -25 l275 -1 1 -150 c2
-169 10 -194 73 -242 l36 -28 251 -3 c266 -4 301 1 348 41 48 42 58 82 58 240
l0 144 938 -1 937 -1 5 -156 c4 -131 8 -160 24 -185 55 -82 62 -84 368 -81
l265 2 36 28 c61 46 71 75 73 217 1 69 3 137 3 151 l1 26 258 0 c141 0 273 3
293 7 46 8 105 64 119 114 8 25 10 159 8 413 l-3 376 -25 36 c-49 73 -71 77
-378 77 -210 0 -272 3 -273 13 -3 41 -4 564 -1 575 3 9 68 12 280 12 275 0
275 0 318 25 28 17 49 39 63 69 21 43 22 53 19 428 -3 362 -4 385 -23 416 -11
18 -36 43 -55 55 -33 21 -49 22 -320 27 l-284 5 0 295 0 295 285 5 c283 5 286
5 321 30 74 50 73 39 75 475 l3 390 -26 43 c-16 26 -41 50 -67 64 -40 20 -56
21 -314 21 -150 0 -273 3 -274 6 0 3 -2 71 -3 151 -2 163 -10 189 -73 237
l-36 28 -251 3 c-266 4 -301 -1 -348 -41 -48 -42 -58 -82 -58 -240 l0 -144
-940 0 -940 0 0 147 c0 134 -2 151 -23 190 -16 30 -37 51 -67 67 -43 23 -51
24 -296 23 -203 -1 -256 -4 -280 -16z m2544 -1731 l-3 -298 -937 -2 -938 -2 0
300 0 299 940 0 940 0 -2 -297z m2 -1623 l0 -300 -940 0 -940 0 0 299 0 300
940 0 940 0 0 -299z"/>
</g>
</svg>
